<mxfile host="app.diagrams.net" modified="2024-05-30T17:40:55.061Z" agent="Mozilla/5.0 (Windows NT 10.0; Win64; x64) AppleWebKit/537.36 (KHTML, like Gecko) Chrome/125.0.0.0 Safari/537.36 Edg/125.0.0.0" etag="i4ChgXDHeleYnKprkPfe" version="24.4.8" type="github">
  <diagram name="第 1 页" id="LL_QKyHD0lv6QJsgIPUl">
    <mxGraphModel dx="464" dy="775" grid="1" gridSize="10" guides="1" tooltips="1" connect="1" arrows="1" fold="1" page="1" pageScale="1" pageWidth="827" pageHeight="1169" math="0" shadow="0">
      <root>
        <mxCell id="0" />
        <mxCell id="1" parent="0" />
        <mxCell id="YwcD0h4neT0KfRgnSYAX-1" value=":用户" style="shape=umlActor;verticalLabelPosition=bottom;verticalAlign=top;html=1;outlineConnect=0;" vertex="1" parent="1">
          <mxGeometry x="230" y="370" width="30" height="60" as="geometry" />
        </mxCell>
        <mxCell id="YwcD0h4neT0KfRgnSYAX-2" value="服务器" style="rounded=0;whiteSpace=wrap;html=1;" vertex="1" parent="1">
          <mxGeometry x="210" y="200" width="70" height="50" as="geometry" />
        </mxCell>
        <mxCell id="YwcD0h4neT0KfRgnSYAX-7" value="" style="endArrow=none;html=1;rounded=0;entryX=0.5;entryY=1;entryDx=0;entryDy=0;exitX=0.5;exitY=0;exitDx=0;exitDy=0;exitPerimeter=0;" edge="1" parent="1" source="YwcD0h4neT0KfRgnSYAX-1" target="YwcD0h4neT0KfRgnSYAX-2">
          <mxGeometry width="50" height="50" relative="1" as="geometry">
            <mxPoint x="220" y="420" as="sourcePoint" />
            <mxPoint x="270" y="370" as="targetPoint" />
          </mxGeometry>
        </mxCell>
        <mxCell id="YwcD0h4neT0KfRgnSYAX-13" value="" style="endArrow=classic;html=1;rounded=0;" edge="1" parent="1">
          <mxGeometry width="50" height="50" relative="1" as="geometry">
            <mxPoint x="230" y="360" as="sourcePoint" />
            <mxPoint x="230" y="290" as="targetPoint" />
          </mxGeometry>
        </mxCell>
        <mxCell id="YwcD0h4neT0KfRgnSYAX-14" value="1.用户发出创建订单请求" style="edgeLabel;html=1;align=center;verticalAlign=middle;resizable=0;points=[];" vertex="1" connectable="0" parent="YwcD0h4neT0KfRgnSYAX-13">
          <mxGeometry x="-0.3714" y="1" relative="1" as="geometry">
            <mxPoint x="-49" y="-18" as="offset" />
          </mxGeometry>
        </mxCell>
        <mxCell id="YwcD0h4neT0KfRgnSYAX-15" value="" style="endArrow=classic;html=1;rounded=0;" edge="1" parent="1">
          <mxGeometry width="50" height="50" relative="1" as="geometry">
            <mxPoint x="270" y="290" as="sourcePoint" />
            <mxPoint x="270" y="360" as="targetPoint" />
          </mxGeometry>
        </mxCell>
        <mxCell id="YwcD0h4neT0KfRgnSYAX-16" value="3.生成订单待支付" style="edgeLabel;html=1;align=center;verticalAlign=middle;resizable=0;points=[];" vertex="1" connectable="0" parent="YwcD0h4neT0KfRgnSYAX-15">
          <mxGeometry x="-0.0571" y="1" relative="1" as="geometry">
            <mxPoint x="29" as="offset" />
          </mxGeometry>
        </mxCell>
        <mxCell id="YwcD0h4neT0KfRgnSYAX-17" value="" style="endArrow=none;html=1;rounded=0;entryX=0.25;entryY=0;entryDx=0;entryDy=0;exitX=0.643;exitY=-0.06;exitDx=0;exitDy=0;exitPerimeter=0;edgeStyle=orthogonalEdgeStyle;curved=1;" edge="1" parent="1" source="YwcD0h4neT0KfRgnSYAX-2" target="YwcD0h4neT0KfRgnSYAX-2">
          <mxGeometry width="50" height="50" relative="1" as="geometry">
            <mxPoint x="245" y="130" as="sourcePoint" />
            <mxPoint x="270" y="370" as="targetPoint" />
            <Array as="points">
              <mxPoint x="240" y="110" />
            </Array>
          </mxGeometry>
        </mxCell>
        <mxCell id="YwcD0h4neT0KfRgnSYAX-18" value="2.处理订单" style="edgeLabel;html=1;align=center;verticalAlign=middle;resizable=0;points=[];" vertex="1" connectable="0" parent="YwcD0h4neT0KfRgnSYAX-17">
          <mxGeometry x="-0.7053" y="1" relative="1" as="geometry">
            <mxPoint x="-5" y="-42" as="offset" />
          </mxGeometry>
        </mxCell>
        <mxCell id="YwcD0h4neT0KfRgnSYAX-20" value="" style="endArrow=classic;html=1;rounded=0;" edge="1" parent="1">
          <mxGeometry width="50" height="50" relative="1" as="geometry">
            <mxPoint x="220" y="150" as="sourcePoint" />
            <mxPoint x="270" y="150" as="targetPoint" />
          </mxGeometry>
        </mxCell>
        <mxCell id="YwcD0h4neT0KfRgnSYAX-21" value="商家" style="shape=umlActor;verticalLabelPosition=bottom;verticalAlign=top;html=1;outlineConnect=0;" vertex="1" parent="1">
          <mxGeometry x="420" y="370" width="30" height="60" as="geometry" />
        </mxCell>
        <mxCell id="YwcD0h4neT0KfRgnSYAX-22" value="" style="endArrow=classic;html=1;rounded=0;" edge="1" parent="1">
          <mxGeometry width="50" height="50" relative="1" as="geometry">
            <mxPoint x="310" y="380" as="sourcePoint" />
            <mxPoint x="400" y="380" as="targetPoint" />
          </mxGeometry>
        </mxCell>
        <mxCell id="YwcD0h4neT0KfRgnSYAX-25" value="4.向商家支付订单" style="edgeLabel;html=1;align=center;verticalAlign=middle;resizable=0;points=[];" vertex="1" connectable="0" parent="YwcD0h4neT0KfRgnSYAX-22">
          <mxGeometry x="0.1333" relative="1" as="geometry">
            <mxPoint x="-11" y="-10" as="offset" />
          </mxGeometry>
        </mxCell>
        <mxCell id="YwcD0h4neT0KfRgnSYAX-23" value="" style="endArrow=none;html=1;rounded=0;" edge="1" parent="1" source="YwcD0h4neT0KfRgnSYAX-1" target="YwcD0h4neT0KfRgnSYAX-21">
          <mxGeometry width="50" height="50" relative="1" as="geometry">
            <mxPoint x="270" y="410" as="sourcePoint" />
            <mxPoint x="270" y="370" as="targetPoint" />
          </mxGeometry>
        </mxCell>
        <mxCell id="YwcD0h4neT0KfRgnSYAX-26" value="" style="endArrow=classic;html=1;rounded=0;" edge="1" parent="1">
          <mxGeometry width="50" height="50" relative="1" as="geometry">
            <mxPoint x="390" y="410" as="sourcePoint" />
            <mxPoint x="290" y="410" as="targetPoint" />
          </mxGeometry>
        </mxCell>
        <mxCell id="YwcD0h4neT0KfRgnSYAX-27" value="5.发货，生成物流信息" style="edgeLabel;html=1;align=center;verticalAlign=middle;resizable=0;points=[];" vertex="1" connectable="0" parent="YwcD0h4neT0KfRgnSYAX-26">
          <mxGeometry x="0.34" y="4" relative="1" as="geometry">
            <mxPoint as="offset" />
          </mxGeometry>
        </mxCell>
      </root>
    </mxGraphModel>
  </diagram>
</mxfile>
